<svg height="32" viewBox="0 0 32 32" width="32" xmlns="http://www.w3.org/2000/svg">
<g fill="#63a4d8"><path d="M15.42 7.22c0-.95-.77-1.72-1.72-1.72H6.73c-.952 0-1.722.77-1.722
 1.72v6.104c0 .95.77 1.72 1.72 1.72H13.7c.95 0 1.72-.77 1.72-1.72V7.22zM27.742 7.22c0-.95-.77-1.72-1.72-1.72H19.05c-.95 
 0-1.72.77-1.72 1.72v6.104c0 .95.77 1.72 1.72 1.72h6.97c.952 0 1.722-.77 
 1.722-1.72V7.22zM15.42 18.676c0-.95-.77-1.72-1.72-1.72H6.73c-.952 0-1.722.77-1.722 
 1.72v6.104c0 .95.77 1.72 1.72 1.72H13.7c.95 0 1.72-.77 1.72-1.72v-6.104zM27.742 18.676c0-.95-.77-1.72-1.72-1.72H19.05c-.95 
 0-1.72.77-1.72 1.72v6.104c0 .95.77 1.72 1.72 1.72h6.97c.952 0 1.722-.77 1.722-1.72v-6.104z"/></g></svg>