<svg xmlns="http://www.w3.org/2000/svg" viewBox="0 0 446.48 154.39"><defs><style>.cls-1{fill:#1d9cd7;}.cls-2{fill:#418fcd;}.cls-3{fill:#4c80c1;}.cls-4{fill:#586eb2;}.cls-5{fill:#5d5ca4;}.cls-6{fill:#5f4a96;}.cls-7{fill:#5b2b82;}.cls-8{fill:#5d2d80;fill-rule:evenodd;}.cls-9{fill:#aeb993;}</style></defs><title>edookit share green</title><g id="Layer_2" data-name="Layer 2"><g id="Layer_1-2" data-name="Layer 1"><path class="cls-1" d="M44.8,58.23c-.34.37-.66.72-1,1q-9.17.34-18.29.62t-18.29.29A28.56,28.56,0,0,0,8.5,68a20,20,0,0,0,3.23,6.34,14.27,14.27,0,0,0,5.37,4.24A18.68,18.68,0,0,0,25,80.09a19.1,19.1,0,0,0,5.32-.79q2.72-.8,5-1.7c1.55-.6,2.87-1.17,4-1.69a8,8,0,0,1,2-.8,1.69,1.69,0,0,1,1.87,1.48,14.34,14.34,0,0,1,.28,2.61v1.7l-.68,1.25a29.26,29.26,0,0,1-8.61,3.39A40.38,40.38,0,0,1,25,86.66a28.58,28.58,0,0,1-12-2.21,19.17,19.17,0,0,1-7.7-6.17,25.37,25.37,0,0,1-4.14-9.4A53,53,0,0,1,0,57,34.19,34.19,0,0,1,1.58,46.33,22.78,22.78,0,0,1,6.28,38,21.2,21.2,0,0,1,14,32.62,27.6,27.6,0,0,1,24.69,30.7a21.17,21.17,0,0,1,10,2.15,17.13,17.13,0,0,1,6.4,5.83,25.08,25.08,0,0,1,3.39,8.44,47.14,47.14,0,0,1,1,10A4.15,4.15,0,0,1,44.8,58.23ZM37,47A16.69,16.69,0,0,0,34.49,42a12.33,12.33,0,0,0-4.08-3.45,11.91,11.91,0,0,0-5.72-1.31,17.1,17.1,0,0,0-12.11,4.42A17.2,17.2,0,0,0,7.25,53.46h3.51q6.92,0,13.76-.11t13.65-.68A24.3,24.3,0,0,0,37,47Z"/><path class="cls-2" d="M99.17,85.24A5,5,0,0,1,98,86h-2.5l-.91-.46c-.22-.22-.45-.47-.68-.74a3.58,3.58,0,0,1-.57-1l-.11-5.55A22.79,22.79,0,0,1,85.8,84.4a20,20,0,0,1-9.34,2.26,25.84,25.84,0,0,1-10.82-2,19.07,19.07,0,0,1-7.31-5.67,23.25,23.25,0,0,1-4.13-8.6,42.87,42.87,0,0,1-1.3-10.87q0-14.16,6.74-21.36t21.13-7.19c2,0,4.07.05,6.12.17s4.08.24,6.11.4V2.27A4,4,0,0,1,93.9,1,4.05,4.05,0,0,1,95.15.12H98l.9.45a9.47,9.47,0,0,1,.68.74,3.5,3.5,0,0,1,.57,1v82A5.75,5.75,0,0,1,99.17,85.24ZM86.94,37.67c-2.08-.12-4.14-.17-6.18-.17q-10.88,0-15.8,5.77T60,59.48a35,35,0,0,0,.85,7.81,19.15,19.15,0,0,0,2.77,6.57,14.2,14.2,0,0,0,5.1,4.54,16.44,16.44,0,0,0,7.82,1.7,14.5,14.5,0,0,0,8.32-2.2,15.18,15.18,0,0,0,5-5.84,28.26,28.26,0,0,0,2.54-8.15,66.78,66.78,0,0,0,.85-9.12c.08-3.06,0-6-.11-8.89S93,40.55,93,38.52A34.54,34.54,0,0,0,86.94,37.67Z"/><path class="cls-3" d="M157.17,69.73a24.1,24.1,0,0,1-4.7,8.89,22.18,22.18,0,0,1-7.93,5.89,27,27,0,0,1-11.21,2.15,28.13,28.13,0,0,1-11.28-2.1,21.84,21.84,0,0,1-8-5.89,24.91,24.91,0,0,1-4.81-8.94,38.1,38.1,0,0,1-1.59-11.28,41.57,41.57,0,0,1,1.47-11.55,22.89,22.89,0,0,1,4.59-8.73,19.91,19.91,0,0,1,8-5.55,31.4,31.4,0,0,1,11.55-1.93,31.31,31.31,0,0,1,11.62,1.93,19.54,19.54,0,0,1,7.87,5.55,23.27,23.27,0,0,1,4.53,8.73,41.57,41.57,0,0,1,1.48,11.55A39.52,39.52,0,0,1,157.17,69.73ZM150.54,49a15.63,15.63,0,0,0-3.05-6.29,14.12,14.12,0,0,0-5.61-4,22.67,22.67,0,0,0-8.55-1.41,20.57,20.57,0,0,0-8.49,1.59,14.85,14.85,0,0,0-5.72,4.42A19.08,19.08,0,0,0,115.82,50a33,33,0,0,0,0,16.71,19.31,19.31,0,0,0,3.4,6.91,17.15,17.15,0,0,0,5.78,4.7,17.89,17.89,0,0,0,8.21,1.76,18.2,18.2,0,0,0,8.62-1.87,15.27,15.27,0,0,0,5.6-5A21.8,21.8,0,0,0,150.49,66a38.41,38.41,0,0,0,1-8.66A35,35,0,0,0,150.54,49Z"/><path class="cls-4" d="M215.16,69.73a24.09,24.09,0,0,1-4.7,8.89,22.17,22.17,0,0,1-7.93,5.89,27,27,0,0,1-11.21,2.15A28.13,28.13,0,0,1,180,84.56a21.84,21.84,0,0,1-8-5.89,24.91,24.91,0,0,1-4.81-8.94,38.09,38.09,0,0,1-1.59-11.28,41.57,41.57,0,0,1,1.47-11.55,22.9,22.9,0,0,1,4.59-8.73,19.91,19.91,0,0,1,8-5.55,35.79,35.79,0,0,1,23.17,0,19.54,19.54,0,0,1,7.87,5.55,23.37,23.37,0,0,1,4.53,8.73,41.58,41.58,0,0,1,1.48,11.55A39.52,39.52,0,0,1,215.16,69.73ZM208.53,49a15.63,15.63,0,0,0-3.05-6.29,14.13,14.13,0,0,0-5.61-4,22.67,22.67,0,0,0-8.55-1.41,20.59,20.59,0,0,0-8.5,1.59,14.86,14.86,0,0,0-5.72,4.42A19.08,19.08,0,0,0,173.8,50a33,33,0,0,0,0,16.71,19.31,19.31,0,0,0,3.4,6.91,17.17,17.17,0,0,0,5.78,4.7,17.91,17.91,0,0,0,8.21,1.76,18.21,18.21,0,0,0,8.62-1.87,15.27,15.27,0,0,0,5.6-5A21.79,21.79,0,0,0,208.47,66a38.41,38.41,0,0,0,1-8.66A35,35,0,0,0,208.53,49Z"/><path class="cls-5" d="M264.32,85.3a2.29,2.29,0,0,1-1.54.68h-4.42L231.52,60.15V83.83a4,4,0,0,1-.9,1.25,4.13,4.13,0,0,1-1.25.91H226.2l-1.36-1.14-.57-1V2.15a3.12,3.12,0,0,1,.91-1.3A3.82,3.82,0,0,1,226.53,0h2.72a3.94,3.94,0,0,1,1.25.9,4.09,4.09,0,0,1,.9,1.25V49.5q5.78-4.75,11.33-9.46t11.32-9.45h4.3a2,2,0,0,1,1.65.74,2.63,2.63,0,0,1,.62,1.75l-.57,1L235,54.37c.53.53,1.66,1.59,3.4,3.17s3.7,3.42,5.89,5.5,4.52,4.29,7,6.63S256,74.18,258,76.18s3.72,3.72,5,5.16a10.08,10.08,0,0,1,2,2.49A2,2,0,0,1,264.32,85.3Z"/><path class="cls-6" d="M279.09,21.19l-.9.34h-4.31l-.9-.34-.91-.8-.46-.9v-4.3a3.69,3.69,0,0,1,.57-1c.23-.26.46-.51.68-.74l.91-.45h4.31a3.91,3.91,0,0,1,1.36.85,3.14,3.14,0,0,1,.91,1.31v4.3A3.06,3.06,0,0,1,279.09,21.19Zm-.45,64.05a4.14,4.14,0,0,1-1.14.74h-3.28l-1.37-1.14-.57-1V33.64a3.87,3.87,0,0,1,1.37-1.81l.79-.34h3l.79.34a3.78,3.78,0,0,1,1.36,1.81V84.28A6.62,6.62,0,0,1,278.65,85.24Z"/><path class="cls-7" d="M324.29,82l-.68,1.25a19.47,19.47,0,0,1-6.12,2.55,28.26,28.26,0,0,1-6.68.85,17.4,17.4,0,0,1-7.25-1.3,10.94,10.94,0,0,1-4.47-3.62,14.05,14.05,0,0,1-2.27-5.55A38.54,38.54,0,0,1,296.2,69V39.87h-6.69l-1.36-1.13-.45-1v-2.5l.34-.79a3.79,3.79,0,0,1,1.81-1.36h6.35c.15-2.42.22-4.84.22-7.25s0-4.95.12-7.37a5.47,5.47,0,0,1,1-1,4.48,4.48,0,0,1,1.19-.74h2.61l1.36,1.13.57,1V33.08h17.67A4.1,4.1,0,0,1,322,34a4.82,4.82,0,0,1,.74,1.18v2.5A4.08,4.08,0,0,1,321.8,39a3.91,3.91,0,0,1-1.25.91H303.22V69a27,27,0,0,0,.28,3.85,11.26,11.26,0,0,0,1.14,3.57A7.26,7.26,0,0,0,307,79.07a6.44,6.44,0,0,0,3.74,1,11.65,11.65,0,0,0,3.68-.62q1.87-.63,3.45-1.3c1.06-.46,2-.89,2.78-1.3a4.47,4.47,0,0,1,1.64-.62,1.67,1.67,0,0,1,1.76,1,4.33,4.33,0,0,1,.29,2Z"/><path class="cls-8" d="M379.8,78.83h-.52a31.21,31.21,0,0,1-8.7,7.55l.11.26a101.68,101.68,0,0,1,22.39-.12l.07-.25C388.35,84.68,382.32,81.59,379.8,78.83ZM442.86,51c0-.32,2.07-10.23,2.06-14.06,0-9.11.1-17.67-5.7-24.81-7.63-9.4-21.35-15.62-42.37-9.92s-29.72,18-31.57,30c-1.4,9.09,5.49,18.51,5.53,18.83A10.27,10.27,0,0,0,375,68.79l.06.24c.3.71,7.65,16.3,31.73,16.3S438.25,69.73,438.57,69l0-.24A10.27,10.27,0,0,0,442.86,51Zm-7.08-12a34,34,0,0,1-5.92,7.68,50.73,50.73,0,0,1-18.25,10.06,50.7,50.7,0,0,1-20.82.53,34.14,34.14,0,0,1-9-3.64c-6.41-4.3-10-15-8.51-23.75a21.16,21.16,0,0,1,5.38-10.19c4.35-4.39,12.39-6.17,17.72-5.1,1.16.24,4.13,1.25,4.13,1.25s2.06-2.38,2.94-3.17c4.06-3.62,11.91-6.14,17.87-4.55a21.18,21.18,0,0,1,9.79,6.08C436.86,21,439.15,32,435.78,38.93ZM415.14,28c-4,4.13-6.24,10.78-7,15.95-3.23-4.1-8.51-8.71-14.06-10.26-5.71-1.58-13.76,2.49-14.5,8.23,1.89,1.55,8.21,3.06,13,1.51,3-1,4.57-3.28,6.44-5.15a55.28,55.28,0,0,1,10.83,12,55.42,55.42,0,0,1,3.3-15.81c2.55.66,5,1.87,8.16,1.19,4.91-1.08,9.6-5.57,10.45-7.87C428.28,23.24,419.27,23.78,415.14,28Zm19.25,50.79h-.52c-2.51,2.76-8.55,5.85-13.35,7.43l.07.25a101.68,101.68,0,0,1,22.39.12l.11-.26A31.36,31.36,0,0,1,434.39,78.83Z"/><path class="cls-9" d="M339.12,150.29a6.9,6.9,0,0,1-2.31,2.37,10.6,10.6,0,0,1-3.24,1.32,15.84,15.84,0,0,1-3.6.42,22.74,22.74,0,0,1-4-.36,19.42,19.42,0,0,1-3.84-1.08l-.48-.72v-2.1a1.06,1.06,0,0,1,.36-.81,1.2,1.2,0,0,1,.84-.33,3.22,3.22,0,0,1,1.14.3q.72.3,1.68.66t2.07.66a8.8,8.8,0,0,0,2.31.3,11,11,0,0,0,2.1-.21,6.5,6.5,0,0,0,2-.72,4.33,4.33,0,0,0,1.47-1.35,3.55,3.55,0,0,0,.57-2,3.47,3.47,0,0,0-1.08-2.64,11.42,11.42,0,0,0-2.67-1.83q-1.59-.81-3.48-1.56a16.93,16.93,0,0,1-3.48-1.86,10,10,0,0,1-2.67-2.76,7.47,7.47,0,0,1-1.08-4.17,6.46,6.46,0,0,1,.75-3.24,6.31,6.31,0,0,1,2-2.16,8.93,8.93,0,0,1,2.88-1.23,14.06,14.06,0,0,1,3.3-.39,27.83,27.83,0,0,1,7.68,1.08l.36.48a2.41,2.41,0,0,1,.3.54v1.68a1.32,1.32,0,0,1-.27.75.81.81,0,0,1-.69.39,7.86,7.86,0,0,1-1.8-.21q-.9-.21-1.83-.48t-1.86-.51a7.58,7.58,0,0,0-1.89-.24,11.16,11.16,0,0,0-1.77.15,5.08,5.08,0,0,0-1.68.57A3.78,3.78,0,0,0,326,130a2.89,2.89,0,0,0-.48,1.74,3.63,3.63,0,0,0,1.08,2.73,10.88,10.88,0,0,0,2.67,1.86q1.59.81,3.48,1.56a17.05,17.05,0,0,1,3.48,1.86,10,10,0,0,1,2.67,2.76,7.47,7.47,0,0,1,1.08,4.17A6.9,6.9,0,0,1,339.12,150.29Z"/><path class="cls-9" d="M369,153.53c-.12.14-.24.27-.36.39l-.48.24h-1.5a2.06,2.06,0,0,1-.72-.45,1.67,1.67,0,0,1-.48-.69v-17.7a6.06,6.06,0,0,0-2.22-5.16,8.79,8.79,0,0,0-5.46-1.68,9.43,9.43,0,0,0-2.88.48,11.46,11.46,0,0,0-2.82,1.35,7.73,7.73,0,0,0-2.16,2.1,4.83,4.83,0,0,0-.84,2.79V153a1.67,1.67,0,0,1-.48.69,2.06,2.06,0,0,1-.72.45h-1.5l-.48-.24c-.12-.12-.24-.25-.36-.39a1.79,1.79,0,0,1-.3-.51v-43.2a1.81,1.81,0,0,1,.3-.51l.36-.39.48-.24h1.5a2.06,2.06,0,0,1,.72.45,1.68,1.68,0,0,1,.48.69v18.54a10.13,10.13,0,0,1,4-2.55,14.14,14.14,0,0,1,4.71-.81,17.91,17.91,0,0,1,4.68.57,9.59,9.59,0,0,1,3.63,1.83,8.39,8.39,0,0,1,2.37,3.21,11.89,11.89,0,0,1,.84,4.71V153A1.81,1.81,0,0,1,369,153.53Z"/><path class="cls-9" d="M395.79,153.58a2,2,0,0,1-.72.45h-1.26l-.48-.24c-.12-.12-.24-.25-.36-.39a1.78,1.78,0,0,1-.3-.51l-.06-2.94a10.81,10.81,0,0,1-8.88,4.44,9.7,9.7,0,0,1-3.63-.66,9,9,0,0,1-2.88-1.83,7.82,7.82,0,0,1-1.89-2.85,9.91,9.91,0,0,1-.66-3.66,8.81,8.81,0,0,1,.84-4.08,7.7,7.7,0,0,1,2.25-2.67,10.22,10.22,0,0,1,3.24-1.59,21.51,21.51,0,0,1,3.81-.75q2-.21,4-.24l3.72,0v-2.4q0-3.12-1.65-4.2a8.21,8.21,0,0,0-4.53-1.08,9.9,9.9,0,0,0-2.91.45,21,21,0,0,0-2.7,1q-1.23.57-2.1,1a4.06,4.06,0,0,1-1,.45.9.9,0,0,1-1-.81,7.87,7.87,0,0,1-.15-1.41v-.9l.36-.72q2.1-.78,3.6-1.29t3.12-.9a12.12,12.12,0,0,1,2.76-.39,20.92,20.92,0,0,1,4.26.39,7.71,7.71,0,0,1,3.15,1.38,6.07,6.07,0,0,1,2,2.7,12,12,0,0,1,.66,4.29v19.26A1.68,1.68,0,0,1,395.79,153.58Zm-5.31-14.46a5.4,5.4,0,0,0-2.19.15,4.13,4.13,0,0,1-1.17.09,9.26,9.26,0,0,0-1.29,0,14.06,14.06,0,0,0-2.64.48,8,8,0,0,0-2.28,1,5.08,5.08,0,0,0-1.62,1.77,5.5,5.5,0,0,0-.6,2.7,6,6,0,0,0,.36,2.07,5.38,5.38,0,0,0,1,1.74,5.49,5.49,0,0,0,1.56,1.23,4.25,4.25,0,0,0,2,.48,8.16,8.16,0,0,0,4.2-1,7.59,7.59,0,0,0,2.67-2.61,11.34,11.34,0,0,0,1.41-3.63,20.07,20.07,0,0,0,.42-4.11l.3-.6A5.37,5.37,0,0,1,390.48,139.12Z"/><path class="cls-9" d="M418,128.54l-.6.36-.6.06a4.21,4.21,0,0,0-1.11-.21q-.57,0-1.17,0a7.38,7.38,0,0,0-2.73.51,7.13,7.13,0,0,0-2.28,1.44,6.85,6.85,0,0,0-1.56,2.19,6.47,6.47,0,0,0-.57,2.7v17.34a2.62,2.62,0,0,1-1.14,1.14h-1.5a2,2,0,0,1-.72-.45,1.66,1.66,0,0,1-.48-.69V126.31a1.82,1.82,0,0,1,.66-1l.48-.18h1.5l.42.18a2,2,0,0,1,.72,1v1.86a10,10,0,0,1,3.66-2.46,12,12,0,0,1,4.32-.78c.36,0,.72,0,1.08,0a6.73,6.73,0,0,1,1.08.15,2.78,2.78,0,0,1,.48.48,2.45,2.45,0,0,1,.36.6v1.74Z"/><path class="cls-9" d="M443.4,139.33l-.51.54q-4.86.18-9.69.33t-9.69.15a15.17,15.17,0,0,0,.66,4.14,10.62,10.62,0,0,0,1.71,3.36,7.56,7.56,0,0,0,2.85,2.25,9.89,9.89,0,0,0,4.2.81,10,10,0,0,0,2.82-.42q1.44-.42,2.67-.9t2.1-.9a4.23,4.23,0,0,1,1.05-.42.89.89,0,0,1,1,.78,7.45,7.45,0,0,1,.15,1.38v.9l-.36.66a15.48,15.48,0,0,1-4.56,1.8,21.53,21.53,0,0,1-4.86.6,15.16,15.16,0,0,1-6.33-1.17,10.18,10.18,0,0,1-4.08-3.27,13.45,13.45,0,0,1-2.19-5,28.17,28.17,0,0,1-.66-6.3,18.11,18.11,0,0,1,.84-5.64,12.06,12.06,0,0,1,2.49-4.41,11.23,11.23,0,0,1,4.11-2.85,14.62,14.62,0,0,1,5.64-1,11.17,11.17,0,0,1,5.31,1.14,9,9,0,0,1,3.39,3.09,13.28,13.28,0,0,1,1.8,4.47,25.12,25.12,0,0,1,.54,5.28A2.06,2.06,0,0,1,443.4,139.33Zm-4.11-6a8.76,8.76,0,0,0-1.35-2.61,6.6,6.6,0,0,0-2.16-1.83,6.35,6.35,0,0,0-3-.69,8.82,8.82,0,0,0-9.24,8.58h1.86q3.66,0,7.29-.06t7.23-.36A13,13,0,0,0,439.28,133.37Z"/></g></g></svg>