<svg viewBox="0 0 128 128" xmlns="http://www.w3.org/2000/svg"><path fill="none" d="M0 0h128v128H0z"/>
<path clip-rule="evenodd" d="M68.37 128H7.064C3.162 128 0 124.836 0 120.935V7.065C0 3.162 3.162 0 7.065 
0h113.87C124.838 0 128 3.162 128 7.065v113.87c0 3.902-3.163 7.065-7.064 
7.065H88.318V78.43h16.638l2.49-19.317H88.32V46.78c0-5.593 1.553-9.404 9.573-9.404l10.23-.004V20.094c-1.77-.235-7.84-.76-14.906-.76-14.75 
0-24.846 9.002-24.846 25.534v14.246h-16.68v19.318h16.68V128z" fill="white" fill-rule="evenodd"/></svg>