<svg height="32" version="1" viewBox="0 0 32 32" width="32" xmlns="http://www.w3.org/2000/svg" xmlns:xlink="http://www.w3.org/1999/xlink"><defs><path d="M23.028 11.518l-6.69-3.862S4.148.616 3.43.203C2.715-.21 2 .04 2 .903V31.264c0 .65.512.93 1.133.57l13.205-7.626 6.69-3.862 6.433-3.714c.755-.435.684-1.032.046-1.376s-6.478-3.738-6.478-3.738z" id="a"/></defs><clipPath id="b"><use overflow="visible" xlink:href="#a"/></clipPath><path clip-path="url(#b)" fill="#2CAFA2" d="M2-.504V32.367l16.577-16.435"/><path clip-path="url(#b)" fill="#77E888" d="M23.028 11.518l-6.69-3.863L2-.625v.12l16.577 16.437"/><path clip-path="url(#b)" fill="#CC3A72" d="M2 32.367v.12l14.338-8.278 6.69-3.863-4.45-4.415"/><path clip-path="url(#b)" fill="#EA9053" d="M23.028 11.518l-4.45 4.414 4.45 4.415 7.648-4.415"/></svg>