<svg height="141.732" viewBox="0 0 141.732 141.732" width="141.732" xmlns="http://www.w3.org/2000/svg">
<path fill="#dddddd" d="M94.23 32.85v22.94H48.745V32.85c0-12.557 10.184-22.742 22.744-22.742 12.558 0 22.74 10.182
 22.74 22.743M62.367 84.168c0-5.04 4.085-9.122 9.122-9.122 5.038 0 9.12 4.083 9.12 9.122 0 3.89-2.436 
 7.198-5.863 8.514v29.278H68.23V92.68c-3.426-1.314-5.863-4.626-5.863-8.513m58.58 
 52.55v-76.43-.012c0-2.478-2.008-4.487-4.487-4.487H104.34V32.85C104.34 14.708 89.633 0 71.49 0
 53.344 0 38.636 14.707 38.636 32.85v22.94H26.515c-2.478 0-4.485 2.008-4.485 4.486l.002.012v76.444c0
 2.475 2.007 4.486 4.485 4.486H116.463c2.477 0 4.488-2.008 4.488-4.486l-.004-.016"/></svg>