<svg xmlns="http://www.w3.org/2000/svg" viewBox="0 0 112.73 120"><defs>
<style>.cls-1{fill:white;fill-rule:evenodd;}</style></defs><title>Owl5</title><g id="Layer_2" data-name="Layer 2"><path class="cls-1" d="M20.36 109.19h-.72c-2.63 3.7-7.44 7.65-12.06 10.46l.15.36c7.23-1.07 19.39-1.34 31-.17l.1-.35c-6.63-2.2-14.98-6.49-18.47-10.3zm87.35-38.59c0-.45 2.87-14.17 2.85-19.48-.06-12.62.14-24.48-7.89-34.36C92.1 3.74 73.1-4.87 44 3S2.81 27.94.26 44.51C-1.67 57.1 7.86 70.15 7.92 70.6a14.22 14.22 0 0 0 5.86 24.68l.08.33c.42 1 10.6 22.57 43.95 22.57s43.52-21.6 44-22.57l.07-.33a14.23 14.23 0 0 0 5.88-24.68zm-9.8-16.68c-1.48 3.09-5.47 8-8.2 10.64-4.14 3.93-15.11 11.18-25.28 13.94s-23.29 2-28.84.74a47.29 47.29 0 0 1-12.45-5c-8.88-6-13.87-20.73-11.78-32.9a29.31 29.31 0 0 1 7.45-14.11c6-6.07 17.17-8.55 24.55-7.07 1.61.33 5.72 1.73 5.72 1.73s2.85-3.3 4.07-4.39c5.63-5 16.5-8.5 24.76-6.3a29.34 29.34 0 0 1 13.56 8.42c7.93 9.38 11.1 24.68 6.44 34.31zm-28.6-15.08c-5.55 5.72-8.64 14.93-9.64 22.09-4.47-5.68-11.78-12.07-19.47-14.21-7.91-2.2-19.06 3.45-20.08 11.4 2.62 2.14 11.37 4.23 18 2.09 4.21-1.37 6.33-4.55 8.93-7.14a76.58 76.58 0 0 1 15 16.6 76.76 76.76 0 0 1 4.57-21.9c3.54.92 7 2.59 11.31 1.65 6.8-1.49 13.29-7.71 14.48-10.9-4.9-6.33-17.41-5.58-23.1.32zM96 109.19h-.72c-3.48 3.82-11.85 8.1-18.49 10.29l.1.35c11.63-1.17 23.8-.9 31 .17l.15-.36c-4.62-2.8-9.43-6.75-12.04-10.45z" id="Layer_1-2" data-name="Layer 1"/></g></svg>